<svg width="31" height="31" viewBox="0 0 31 31" fill="none" xmlns="http://www.w3.org/2000/svg">
<g id="Elements/Menu Icons" clip-path="url(#clip0_4_2618)">
<path id="Vector" d="M15.0432 29.8485C18.9999 29.8485 22.2074 26.641 22.2074 22.6843C22.2074 18.7276 18.9999 15.52 15.0432 15.52C11.0865 15.52 7.87891 18.7276 7.87891 22.6843C7.87891 26.641 11.0865 29.8485 15.0432 29.8485Z" stroke="#282828" stroke-width="1.07464" stroke-miterlimit="10"/>
<path id="Vector_2" d="M15.0432 15.5185C18.9999 15.5185 22.2074 12.3109 22.2074 8.3542C22.2074 4.39749 18.9999 1.18994 15.0432 1.18994C11.0865 1.18994 7.87891 4.39749 7.87891 8.3542C7.87891 12.3109 11.0865 15.5185 15.0432 15.5185Z" stroke="#282828" stroke-width="1.07464" stroke-miterlimit="10"/>
<path id="Vector_3" d="M22.2111 22.682C26.1678 22.682 29.3754 19.4745 29.3754 15.5178C29.3754 11.5611 26.1678 8.35352 22.2111 8.35352C18.2544 8.35352 15.0469 11.5611 15.0469 15.5178C15.0469 19.4745 18.2544 22.682 22.2111 22.682Z" stroke="#282828" stroke-width="1.07464" stroke-miterlimit="10"/>
<path id="Vector_4" d="M7.8791 22.682C11.8358 22.682 15.0434 19.4745 15.0434 15.5178C15.0434 11.5611 11.8358 8.35352 7.8791 8.35352C3.92239 8.35352 0.714844 11.5611 0.714844 15.5178C0.714844 19.4745 3.92239 22.682 7.8791 22.682Z" stroke="#282828" stroke-width="1.07464" stroke-miterlimit="10"/>
</g>
<defs>
<clipPath id="clip0_4_2618">
<rect width="30.0899" height="30.0899" fill="white" transform="translate(0 0.475098)"/>
</clipPath>
</defs>
</svg>
