<svg width="24" height="24" viewBox="0 0 24 24" fill="none" xmlns="http://www.w3.org/2000/svg">
<path fill-rule="evenodd" clip-rule="evenodd" d="M16.2812 3C16.2812 2.58579 15.9455 2.25 15.5312 2.25C15.117 2.25 14.7812 2.58579 14.7812 3V4.25H8.28125V3C8.28125 2.58579 7.94546 2.25 7.53125 2.25C7.11704 2.25 6.78125 2.58579 6.78125 3V4.25H5.53125C4.01247 4.25 2.78125 5.48122 2.78125 7V11V19C2.78125 20.5188 4.01247 21.75 5.53125 21.75H17.5312C19.05 21.75 20.2812 20.5188 20.2812 19V11V7C20.2812 5.48122 19.05 4.25 17.5312 4.25H16.2812V3ZM18.7812 10.25V7C18.7812 6.30964 18.2216 5.75 17.5312 5.75H16.2812V7C16.2812 7.41421 15.9455 7.75 15.5312 7.75C15.117 7.75 14.7812 7.41421 14.7812 7V5.75H8.28125V7C8.28125 7.41421 7.94546 7.75 7.53125 7.75C7.11704 7.75 6.78125 7.41421 6.78125 7V5.75H5.53125C4.84089 5.75 4.28125 6.30964 4.28125 7V10.25H18.7812ZM4.28125 11.75H18.7812V19C18.7812 19.6904 18.2216 20.25 17.5312 20.25H5.53125C4.84089 20.25 4.28125 19.6904 4.28125 19V11.75Z" fill="#282828"/>
</svg>
