<svg width="30" height="30" viewBox="0 0 30 30" fill="none" xmlns="http://www.w3.org/2000/svg">
<g id="Branding">
<path id="Union" fill-rule="evenodd" clip-rule="evenodd" d="M9.88639 2.31849L9.68186 2.24823L9.68182 2.24822C9.47728 2.17796 9.27277 2.10772 9.13641 2.17797L7.50003 1.68618L9.06822 0.983603C9.47732 0.77283 9.8864 0.632306 10.2955 0.491791L10.5 0.421529L10.7046 0.491791L11.3182 0.702576C13.2955 1.26464 15.3409 1.12412 17.3864 0.351288C17.4887 0.316159 17.5909 0.263462 17.6932 0.210764C17.7955 0.158067 17.8978 0.105369 18 0.0702405L18.2046 0H18.4091C18.8864 0.0702576 19.2955 0.210773 19.7046 0.351288L21.1364 0.843079L19.0228 1.89694C17.3182 2.59952 15.6137 3.02107 13.841 3.02107C12.1364 3.02107 10.7728 2.66978 9.88639 2.31849ZM5.13884 6.61717L5.13884 6.61717L5.13886 6.61717C5.22331 6.58908 5.30617 6.56152 5.3864 6.53396C7.22731 6.04216 9.20458 6.11241 11.1819 6.88525C12.4773 7.37705 13.7728 7.58782 15.2046 7.58782C18.0682 7.58782 20.9318 6.53396 23.5909 4.49649L24.6137 3.65339L24.9546 3.37237L24.3409 2.88055C24.1364 2.66978 23.8637 2.45902 23.5909 2.3185L23.1818 2.03748L22.8409 2.3185C22.7727 2.35363 22.7216 2.40632 22.6705 2.45901C22.6193 2.51171 22.5682 2.5644 22.5 2.59953C18.8864 5.40983 15.2728 6.18268 11.8637 4.84778C9.40913 3.93443 6.95457 3.72366 4.50002 4.49649C4.29548 4.56675 4.09093 4.637 3.81821 4.70726L3.68185 4.77752L3.4773 4.98828C3.4773 5.03171 3.45125 5.0483 3.41526 5.07122C3.39302 5.08539 3.36699 5.10197 3.34095 5.12881C3.20458 5.33958 3.05117 5.53279 2.89776 5.726C2.74434 5.91921 2.59093 6.11242 2.45457 6.3232L1.15912 8.36066L3.27276 7.23654C3.54282 7.23654 3.77009 7.14836 3.95457 7.07678C4.00297 7.05801 4.04842 7.04037 4.09093 7.02577C4.41978 6.85634 4.7927 6.7323 5.13884 6.61717ZM6.88637 11.1007C4.97728 11.6628 3.20456 12.7166 1.63638 14.4028C1.49659 14.4989 1.38864 14.6277 1.29078 14.7445C1.24544 14.7986 1.20227 14.8501 1.1591 14.8946L0 16.1593L0.068186 14.4028C0.103493 14.1845 0.120519 13.9474 0.138197 13.7012C0.154658 13.4719 0.171683 13.2348 0.204558 12.9977V12.7869L0.340909 12.6464L0.681818 12.2951L2.11364 11.1007C3.47728 10.1874 4.84092 9.48478 6.27274 9.06324C8.52274 8.43092 10.9773 8.57144 13.3636 9.48479C18.4091 11.452 22.8409 8.57142 25.7046 5.76112L25.9773 5.48009L26.4546 4.98828L26.8637 5.55035C26.9407 5.65618 27.008 5.762 27.073 5.86407L27.073 5.86408L27.073 5.8641C27.1806 6.03309 27.2816 6.1918 27.4091 6.32319L27.6818 6.74472L27.3409 7.02577L26.4546 7.93911C24.1364 9.97658 18.8182 13.7705 12.6818 11.452C10.7045 10.6792 8.72728 10.6089 6.88637 11.1007ZM8.25001 15.6675C10.0909 15.1757 12.0682 15.246 14.0455 16.0188C16.2273 16.8619 21.8182 18.0563 28.0909 12.2249L29.1136 11.171L29.1818 11.1008L29.4546 10.8197L29.3182 10.4684C29.25 10.1874 29.1137 9.83616 28.9773 9.48488L28.9773 9.48485L28.6364 8.50122L27.9545 9.2038C27.9105 9.29454 27.8381 9.35598 27.7555 9.42596C27.7103 9.46435 27.6619 9.50531 27.6136 9.55509C24.6136 12.7167 19.9773 15.9485 14.6591 13.9813C12.2727 13.068 9.81819 12.9275 7.56819 13.5598C5.38637 14.1921 3.47728 15.3865 1.70455 17.0727V17.0024L0.681821 18.1265C0.681821 18.17 0.65578 18.1865 0.61979 18.2095C0.59755 18.2236 0.571511 18.2402 0.54547 18.267L0.340912 18.4778L0.409098 18.7588C0.443189 18.9345 0.494325 19.1101 0.54546 19.2858C0.596595 19.4614 0.64773 19.6371 0.681821 19.8127L1.09092 20.9368L1.77273 20.0235C1.80682 19.9532 1.85796 19.9005 1.90909 19.8478C1.96023 19.7952 2.01137 19.7425 2.04546 19.6722L2.16395 19.5616C3.58585 18.2346 5.53087 16.4192 8.25001 15.6675ZM17.591 23.2553C15.2046 22.3419 12.75 22.2014 10.5 22.8337C8.93186 23.2553 7.43186 24.0984 6.06823 25.1522L5.11367 25.9953L4.84094 26.2764L5.45457 26.8384C5.49671 26.8384 5.51281 26.8652 5.53506 26.9023C5.54881 26.9253 5.5649 26.9521 5.59095 26.9789C5.69077 27.0818 5.79059 27.147 5.91716 27.2297L5.91723 27.2297L5.91743 27.2299L5.91764 27.23C5.96384 27.2602 6.0136 27.2927 6.06823 27.3302L6.4773 27.6112L6.8864 27.26C6.95458 27.1897 7.09094 27.0492 7.22731 26.9789C8.45458 25.9251 9.81821 25.2225 11.25 24.8712C13.0909 24.3794 15.0682 24.4497 17.0455 25.2225C18.6818 25.8548 22.0228 26.6276 26.0455 24.8712L26.1819 24.8009L26.3864 24.5902C26.3864 24.5468 26.4124 24.5302 26.4484 24.5072C26.4707 24.4931 26.4967 24.4765 26.5228 24.4496L26.5228 24.4496C26.8637 24.0281 27.2046 23.6066 27.4773 23.1148L28.841 20.9368L26.6591 22.2014C23.4546 24.0281 20.5228 24.3794 17.591 23.2553ZM19.2955 27.9274L19.2955 27.9274L19.2954 27.9274C19.2102 27.8922 19.125 27.8571 19.0227 27.822C16.6364 26.9087 14.1818 26.7682 11.9318 27.4005L11.9316 27.4005C11.4544 27.541 10.9772 27.6815 10.5 27.8923L8.86363 28.6651L8.45456 28.8759L9.8182 29.3677L11.0455 29.7892L11.25 29.8595L11.4546 29.7892C11.5227 29.7658 11.5909 29.7346 11.6591 29.7033C11.7955 29.6409 11.9318 29.5784 12.0682 29.5784C12.2046 29.5784 12.3409 29.5082 12.4773 29.4379C14.1136 29.0164 15.8864 29.0164 17.7955 29.6487C17.8977 29.6838 17.9829 29.719 18.0681 29.7541L18.0682 29.7541L18.0682 29.7541C18.1534 29.7892 18.2387 29.8244 18.3409 29.8595L18.6818 30L18.8864 29.9297C18.959 29.9083 19.0332 29.887 19.1082 29.8653L19.1083 29.8653C19.5265 29.7448 19.9714 29.6166 20.3182 29.4379L22.2273 28.7354L20.25 28.2435C20.1477 28.2084 20.0284 28.1733 19.9091 28.1382C19.7898 28.103 19.6705 28.0679 19.5682 28.0328C19.4659 27.9977 19.3807 27.9625 19.2955 27.9274ZM28.9773 14.5434L30 13.4895L29.9318 15.1054C29.9318 15.3162 29.9148 15.5445 29.8977 15.7728L29.8977 15.7729C29.8807 16.0012 29.8636 16.2296 29.8636 16.4403V16.6511L29.6591 16.8619C29.5909 16.9321 29.5227 16.9848 29.4545 17.0375C29.3864 17.0902 29.3182 17.1429 29.25 17.2132C26.9318 19.2506 23.7955 21.0773 20.6591 21.4286C18.8864 21.6394 17.1136 21.4286 15.4091 20.7963C13.4318 20.0235 11.4545 19.9532 9.61363 20.445C7.56817 21.0071 5.79545 22.1312 4.15908 23.9579L3.88636 24.2389L3.40908 24.8712L3 24.2389C2.86364 23.9579 2.72727 23.7471 2.52272 23.4661L2.25 23.0445L2.52272 22.6933L3.40908 21.7097C5.11362 20.0235 7.02273 18.8994 9.13637 18.267C11.3864 17.6347 13.8409 17.7752 16.2273 18.6886C21.2727 20.6558 25.7727 17.705 28.5682 14.9649L28.9773 14.5434Z" fill="#282828"/>
</g>
</svg>
