<svg width="24" height="24" viewBox="0 0 24 24" fill="none" xmlns="http://www.w3.org/2000/svg">
<path fill-rule="evenodd" clip-rule="evenodd" d="M16.7192 3.1626C15.5826 3.1626 14.4926 3.61411 13.6889 4.4178L13.1889 4.9178C12.896 5.21069 12.896 5.68557 13.1889 5.97846C13.4818 6.27135 13.9567 6.27135 14.2496 5.97846L14.7496 5.47846C15.272 4.95607 15.9805 4.6626 16.7192 4.6626C17.458 4.6626 18.1665 4.95607 18.6889 5.47846C19.2113 6.00085 19.5048 6.70936 19.5048 7.44813C19.5048 8.1869 19.2113 8.89541 18.6889 9.4178L14.6889 13.4178L14.6889 13.4178L14.6835 13.4232C14.4275 13.6846 14.1219 13.8922 13.7846 14.0339C13.4473 14.1756 13.0851 14.2486 12.7192 14.2486C12.3534 14.2486 11.9912 14.1756 11.6539 14.0339C11.3166 13.8922 11.011 13.6846 10.755 13.4232C10.4651 13.1274 9.99021 13.1225 9.69435 13.4124C9.39848 13.7023 9.39363 14.1772 9.68352 14.473C10.0792 14.8769 10.5516 15.1977 11.0728 15.4168C11.5941 15.6358 12.1538 15.7486 12.7192 15.7486C13.2847 15.7486 13.8444 15.6358 14.3657 15.4168C14.8857 15.1983 15.357 14.8784 15.7522 14.4759L19.7496 10.4785C20.5533 9.67477 21.0048 8.58473 21.0048 7.44813C21.0048 6.31154 20.5533 5.2215 19.7496 4.4178C18.9459 3.61411 17.8558 3.1626 16.7192 3.1626ZM11.7191 8.14764C11.1537 8.14764 10.594 8.26047 10.0727 8.47951C9.55268 8.69802 9.08137 9.01787 8.68623 9.42039L4.6888 13.4178C3.8851 14.2215 3.43359 15.3116 3.43359 16.4482C3.43359 17.5847 3.8851 18.6748 4.6888 19.4785C5.49249 20.2822 6.58253 20.7337 7.71913 20.7337C8.85572 20.7337 9.94576 20.2822 10.7495 19.4785L11.2495 18.9785C11.5424 18.6856 11.5424 18.2107 11.2495 17.9178C10.9566 17.6249 10.4817 17.6249 10.1888 17.9178L9.6888 18.4178C9.16641 18.9402 8.4579 19.2337 7.71913 19.2337C6.98036 19.2337 6.27185 18.9402 5.74946 18.4178C5.22707 17.8954 4.93359 17.1869 4.93359 16.4482C4.93359 15.7094 5.22707 15.0009 5.74946 14.4785L9.74946 10.4785L9.74949 10.4785L9.75484 10.473C10.0109 10.2117 10.3165 10.0041 10.6538 9.86238C10.9911 9.72065 11.3533 9.64764 11.7191 9.64764C12.085 9.64764 12.4472 9.72065 12.7845 9.86238C13.1217 10.0041 13.4274 10.2117 13.6834 10.473C13.9733 10.7689 14.4482 10.7738 14.744 10.4839C15.0399 10.194 15.0447 9.71913 14.7548 9.42326C14.3591 9.01939 13.8868 8.69854 13.3655 8.47951C12.8443 8.26047 12.2845 8.14764 11.7191 8.14764Z" fill="white"/>
</svg>
