<svg width="32" height="33" viewBox="0 0 32 33" fill="none" xmlns="http://www.w3.org/2000/svg">
<g id="Icon/Add">
<path id="Union" fill-rule="evenodd" clip-rule="evenodd" d="M16.5699 7.18666C16.5699 6.87107 16.3141 6.61523 15.9985 6.61523C15.6829 6.61523 15.4271 6.87107 15.4271 7.18666V15.9486H6.66518C6.34959 15.9486 6.09375 16.2044 6.09375 16.52C6.09375 16.8356 6.34959 17.0914 6.66518 17.0914H15.4271V25.8533C15.4271 26.1689 15.6829 26.4248 15.9985 26.4248C16.3141 26.4248 16.5699 26.1689 16.5699 25.8533V17.0914H25.3318C25.6474 17.0914 25.9033 16.8356 25.9033 16.52C25.9033 16.2044 25.6474 15.9486 25.3318 15.9486H16.5699V7.18666Z" fill="#282828"/>
</g>
</svg>
